<?xml version="1.0" encoding="UTF-8"?>
<!DOCTYPE svg PUBLIC "-//W3C//DTD SVG 1.1//EN" "http://www.w3.org/Graphics/SVG/1.1/DTD/svg11.dtd">
<!-- Creator: CorelDRAW X7 -->
<svg xmlns="http://www.w3.org/2000/svg" xml:space="preserve" width="29.2523mm" height="29.2525mm" version="1.1" style="shape-rendering:geometricPrecision; text-rendering:geometricPrecision; image-rendering:optimizeQuality; fill-rule:evenodd; clip-rule:evenodd"
viewBox="0 0 854 854"
 xmlns:xlink="http://www.w3.org/1999/xlink">
 <defs>
  <style type="text/css">
   <![CDATA[
    .fil0 {fill:#FEFEFE}
   ]]>
  </style>
 </defs>
 <g id="Capa_x0020_1">
  <metadata id="CorelCorpID_0Corel-Layer"/>
  <g id="_3070881837472">
   <path class="fil0" d="M45 317l272 -272c61,-60 159,-60 220,0l272 272c60,61 60,159 0,220l-272 272c-61,60 -159,60 -220,0l-272 -272c-60,-61 -60,-159 0,-220zm37 44l279 -279c37,-36 95,-36 132,0l279 279c36,37 36,95 0,132l-279 279c-37,36 -95,36 -132,0l-279 -279c-36,-37 -36,-95 0,-132z"/>
   <path class="fil0" d="M319 349c-33,-29 -37,-70 -26,-110l-82 69c-29,25 -27,89 0,116l59 58 197 0 -148 -133z"/>
   <path class="fil0" d="M546 491c32,29 36,70 26,110l81 -69c30,-24 27,-88 0,-116l-58 -58 -198 0 149 133z"/>
   <path class="fil0" d="M262 506l-58 -50c-13,13 -19,30 0,48l176 160c28,26 84,22 115,0l39 -29c12,-9 12,-21 11,-32 -27,-2 -55,-11 -78,-31l-72 -66 -133 0z"/>
   <path class="fil0" d="M602 334l58 51c13,-13 19,-31 0,-48l-175 -161c-29,-26 -84,-22 -115,1l-40 28c-12,9 -11,21 -10,32 27,2 54,11 77,32l72 65 133 0z"/>
  </g>
 </g>
</svg>
