<?xml version="1.0" encoding="UTF-8"?>
<!DOCTYPE svg PUBLIC "-//W3C//DTD SVG 1.1//EN" "http://www.w3.org/Graphics/SVG/1.1/DTD/svg11.dtd">
<!-- Creator: CorelDRAW X7 -->
<svg xmlns="http://www.w3.org/2000/svg" xml:space="preserve" width="89.5412mm" height="20.6235mm" version="1.1" style="shape-rendering:geometricPrecision; text-rendering:geometricPrecision; image-rendering:optimizeQuality; fill-rule:evenodd; clip-rule:evenodd"
viewBox="0 0 8250 1900"
 xmlns:xlink="http://www.w3.org/1999/xlink">
 <defs>
  <style type="text/css">
   <![CDATA[
    .fil2 {fill:#373435}
    .fil1 {fill:#373435}
    .fil0 {fill:#373435;fill-rule:nonzero}
   ]]>
  </style>
 </defs>
 <g id="Capa_x0020_1">
  <metadata id="CorelCorpID_0Corel-Layer"/>
  <path class="fil0" d="M3006 1171c0,-37 -12,-66 -38,-89 -26,-22 -71,-43 -136,-63 -111,-34 -195,-73 -253,-118 -57,-46 -86,-108 -86,-186 0,-79 33,-143 97,-193 65,-50 148,-75 248,-75 107,0 192,26 257,80 65,54 97,124 95,212l-2 3 -187 0c0,-48 -14,-84 -43,-110 -30,-26 -70,-39 -123,-39 -47,0 -84,12 -110,35 -26,22 -39,52 -39,87 0,33 14,60 42,81 29,21 77,43 146,66 106,30 187,69 242,117 56,49 83,112 83,191 0,82 -32,147 -96,195 -64,47 -149,71 -255,71 -104,0 -192,-26 -267,-77 -74,-52 -110,-129 -108,-231l2 -4 187 0c0,57 16,99 50,126 33,27 79,40 136,40 52,0 91,-11 118,-32 27,-22 40,-51 40,-87zm692 146c-22,38 -50,67 -85,88 -33,21 -73,31 -118,31 -75,0 -134,-25 -176,-76 -43,-52 -64,-131 -64,-238l0 -414 192 0 0 415c0,63 9,105 26,129 16,23 43,34 78,34 31,0 58,-5 80,-15 22,-9 40,-24 54,-44l0 -376 193 0 0 571 -160 0 -20 -105zm437 -609l8 94c23,-34 51,-61 86,-80 35,-18 75,-28 120,-28 46,0 85,10 118,31 32,20 57,51 73,91 23,-38 51,-68 86,-89 36,-22 77,-33 125,-33 70,0 126,25 166,75 41,50 61,127 61,229l0 424 -192 0 0 -424c0,-58 -9,-97 -27,-120 -17,-23 -44,-34 -78,-34 -28,0 -51,6 -72,18 -20,13 -36,29 -47,51 0,8 0,15 0,21 1,6 1,13 1,19l0 469 -192 0 0 -424c0,-56 -9,-96 -27,-119 -17,-23 -44,-35 -79,-35 -26,0 -49,5 -68,15 -20,10 -36,24 -49,42l0 521 -192 0 0 -714 179 0zm1345 714c-7,-16 -13,-33 -18,-51 -5,-18 -9,-37 -11,-56 -20,35 -46,64 -78,87 -33,23 -72,34 -117,34 -74,0 -132,-19 -173,-58 -40,-38 -60,-91 -60,-157 0,-70 27,-125 81,-163 53,-39 132,-58 236,-58l108 0 0 -57c0,-34 -9,-61 -27,-80 -18,-18 -45,-28 -81,-28 -31,0 -55,8 -72,23 -17,15 -25,36 -25,62l-186 0 -1 -4c-3,-60 23,-112 79,-156 55,-44 128,-66 218,-66 86,0 155,22 208,65 53,43 80,105 80,186l0 295c0,33 2,65 8,94 4,30 13,59 24,88l-193 0zm-176 -128c34,0 63,-9 90,-26 26,-16 44,-36 54,-58l0 -101 -108 0c-41,0 -72,10 -93,31 -21,20 -32,45 -32,74 0,25 8,44 24,58 16,14 37,22 65,22zm465 128l0 -579 -107 0 0 -135 107 0 0 -80c0,-80 23,-142 69,-185 46,-43 111,-65 195,-65 16,0 33,1 50,3 17,3 35,6 55,11l-16 143c-11,-2 -21,-3 -31,-4 -10,-2 -21,-2 -35,-2 -31,0 -55,8 -71,25 -16,18 -24,42 -24,74l0 80 138 0 0 135 -138 0 0 579 -192 0zm324 -364c0,-106 30,-194 89,-262 59,-68 142,-102 247,-102 106,0 188,34 248,102 60,68 90,155 90,262l0 14c0,108 -30,195 -89,263 -60,67 -142,101 -248,101 -105,0 -188,-34 -248,-101 -59,-68 -89,-155 -89,-263l0 -14zm192 14c0,65 12,118 34,157 23,40 60,59 111,59 50,0 87,-20 110,-59 23,-40 34,-92 34,-157l0 -14c0,-63 -11,-115 -35,-155 -23,-40 -60,-60 -110,-60 -50,0 -86,20 -109,60 -23,41 -35,92 -35,155l0 14zm910 -199l-71 -2c-28,0 -52,6 -71,18 -18,12 -32,29 -42,50l0 483 -192 0 0 -714 179 0 8 105c17,-37 39,-66 66,-87 26,-21 57,-32 92,-32 9,0 18,1 26,3 9,1 17,3 25,5l-20 171zm212 -165l8 94c23,-34 51,-61 86,-80 35,-18 74,-28 120,-28 46,0 85,10 117,31 33,20 58,51 74,91 22,-38 51,-68 86,-89 35,-22 77,-33 125,-33 70,0 126,25 166,75 41,50 61,127 61,229l0 424 -193 0 0 -424c0,-58 -8,-97 -26,-120 -17,-23 -44,-34 -79,-34 -27,0 -51,6 -71,18 -20,13 -36,29 -47,51 0,8 0,15 0,21 1,6 1,13 1,19l0 469 -192 0 0 -424c0,-56 -9,-96 -27,-119 -17,-23 -44,-35 -79,-35 -26,0 -49,5 -68,15 -20,10 -36,24 -49,42l0 521 -192 0 0 -714 179 0z"/>
  <g id="_3070881869216">
   <path class="fil1" d="M101 705l604 -604c135,-135 355,-135 490,0l604 604c135,135 135,355 0,490l-604 604c-135,135 -355,135 -490,0l-604 -604c-135,-135 -135,-355 0,-490zm81 99l622 -622c81,-80 212,-80 292,0l622 622c80,81 80,212 0,292l-622 622c-80,80 -211,80 -292,0l-622 -622c-80,-80 -80,-211 0,-292z"/>
   <path class="fil2" d="M709 777c-72,-65 -81,-156 -57,-245l-182 153c-66,56 -61,197 0,258l130 130 440 0 -331 -296z"/>
   <path class="fil2" d="M1214 1093c73,65 81,156 58,245l181 -153c66,-56 61,-197 0,-258l-130 -130 -439 0 330 296z"/>
   <path class="fil2" d="M583 1127l-128 -113c-30,29 -43,68 0,107l390 357c63,58 186,48 256,-1l88 -64c27,-19 25,-47 23,-70 -60,-5 -122,-25 -172,-71l-161 -145 -296 0z"/>
   <path class="fil2" d="M1341 743l128 113c29,-29 42,-68 0,-107l-390 -357c-63,-58 -187,-48 -256,1l-88 64c-28,19 -26,47 -23,70 60,5 121,25 172,71l160 145 297 0z"/>
  </g>
 </g>
</svg>
