<?xml version="1.0" encoding="UTF-8"?>
<!DOCTYPE svg PUBLIC "-//W3C//DTD SVG 1.1//EN" "http://www.w3.org/Graphics/SVG/1.1/DTD/svg11.dtd">
<!-- Creator: CorelDRAW X7 -->
<svg xmlns="http://www.w3.org/2000/svg" xml:space="preserve" width="43.8885mm" height="30.5579mm" version="1.1" style="shape-rendering:geometricPrecision; text-rendering:geometricPrecision; image-rendering:optimizeQuality; fill-rule:evenodd; clip-rule:evenodd"
viewBox="0 0 5052 3518"
 xmlns:xlink="http://www.w3.org/1999/xlink">
 <defs>
  <style type="text/css">
   <![CDATA[
    .fil2 {fill:#373435}
    .fil1 {fill:#373435}
    .fil0 {fill:#373435;fill-rule:nonzero}
   ]]>
  </style>
 </defs>
 <g id="Capa_x0020_1">
  <metadata id="CorelCorpID_0Corel-Layer"/>
  <g id="_3070833403440">
   <path class="fil0" d="M466 3286c0,-32 -11,-58 -33,-78 -23,-20 -63,-38 -119,-56 -97,-29 -171,-63 -221,-103 -51,-40 -76,-94 -76,-162 0,-69 29,-126 85,-169 57,-44 129,-66 217,-66 93,0 168,24 225,71 57,47 84,108 82,185l-1 3 -163 0c0,-42 -13,-74 -39,-97 -25,-22 -60,-34 -106,-34 -42,0 -74,10 -97,30 -23,20 -34,46 -34,77 0,29 12,52 37,70 25,19 67,38 128,59 92,26 163,60 211,102 49,42 73,98 73,167 0,72 -28,128 -84,170 -57,42 -131,62 -223,63 -91,-1 -169,-23 -233,-68 -65,-45 -97,-112 -95,-202l1 -3 164 0c0,50 14,86 44,110 29,23 69,35 119,35 45,0 79,-10 103,-29 23,-18 35,-44 35,-75zm605 127c-20,33 -44,59 -74,77 -29,19 -64,27 -103,28 -66,-1 -118,-23 -155,-67 -37,-45 -55,-114 -55,-208l0 -363 168 0 0 364c0,54 7,92 22,112 15,20 38,30 69,30 27,0 50,-4 69,-13 19,-8 35,-21 48,-38l0 -330 168 0 0 500 -140 0 -17 -92zm382 -533l7 83c20,-30 45,-53 75,-70 31,-16 66,-24 105,-24 40,0 75,9 103,26 29,18 50,45 65,81 19,-34 44,-60 75,-79 31,-19 67,-28 109,-28 61,0 110,22 145,65 36,44 54,111 54,200l0 371 -169 0 0 -371c0,-50 -8,-85 -23,-105 -15,-19 -38,-29 -69,-29 -24,0 -44,5 -62,16 -17,10 -31,25 -42,44 0,7 1,14 1,19 0,5 1,10 1,16l0 410 -169 0 0 -371c0,-49 -7,-84 -23,-104 -15,-20 -38,-30 -69,-30 -23,0 -43,4 -60,13 -17,8 -31,21 -42,36l0 456 -169 0 0 -625 157 0zm1177 625c-6,-14 -12,-29 -16,-45 -5,-16 -8,-32 -10,-48 -17,30 -40,56 -68,75 -29,21 -63,30 -102,31 -66,-1 -116,-17 -151,-51 -36,-34 -54,-80 -54,-138 0,-61 24,-109 71,-142 47,-34 116,-51 207,-51l95 0 0 -49c0,-30 -8,-54 -24,-70 -16,-17 -40,-25 -71,-25 -27,0 -48,6 -63,20 -15,13 -22,31 -22,54l-163 0 -1 -3c-2,-53 21,-99 69,-137 49,-38 113,-57 191,-57 75,0 136,19 182,56 47,38 70,92 70,163l0 258c0,29 2,57 7,82 4,26 11,52 21,77l-168 0zm-154 -112c29,0 55,-8 78,-22 23,-15 39,-32 48,-51l0 -89 -95 0c-36,0 -63,9 -81,27 -19,18 -28,40 -28,65 0,22 7,38 21,51 13,12 32,19 57,19zm406 112l0 -506 -93 0 0 -119 93 0 0 -69c0,-70 20,-124 60,-162 41,-38 98,-57 171,-57 14,0 29,1 43,3 15,2 32,5 49,9l-14 125c-10,-1 -18,-2 -27,-4 -9,-1 -19,-1 -30,-1 -28,0 -49,7 -63,22 -14,15 -21,37 -21,65l0 69 121 0 0 119 -121 0 0 506 -168 0zm283 -318c0,-93 26,-169 78,-229 52,-60 124,-89 217,-89 92,0 164,29 217,89 52,59 78,135 78,229l0 12c0,94 -26,171 -78,230 -52,59 -124,88 -216,89 -93,-1 -165,-30 -217,-89 -52,-59 -79,-136 -79,-230l0 -12zm169 12c0,57 10,103 30,137 20,35 52,52 97,52 43,0 75,-17 95,-52 20,-35 31,-80 31,-137l0 -12c0,-55 -11,-101 -31,-136 -21,-35 -53,-52 -96,-52 -44,0 -76,17 -96,53 -20,35 -30,80 -30,135l0 12zm795 -174l-62 -1c-25,0 -45,5 -62,15 -16,10 -28,25 -36,44l0 422 -169 0 0 -625 157 0 7 93c15,-33 34,-59 57,-77 24,-18 50,-27 81,-27 8,0 16,0 23,2 7,1 15,3 22,5l-18 149zm185 -145l7 83c20,-30 45,-53 76,-70 30,-16 65,-24 105,-24 40,0 74,9 103,26 28,18 50,45 64,81 20,-34 45,-60 75,-79 31,-19 67,-28 109,-28 61,0 110,22 146,65 35,44 53,111 53,200l0 371 -168 0 0 -371c0,-50 -8,-85 -24,-105 -15,-19 -38,-29 -68,-29 -24,0 -45,5 -62,16 -18,10 -32,25 -42,44 0,7 0,14 0,19 1,5 1,10 1,16l0 410 -168 0 0 -371c0,-49 -8,-84 -23,-104 -16,-20 -39,-30 -70,-30 -22,0 -42,4 -60,13 -17,8 -31,21 -42,36l0 456 -168 0 0 -625 156 0z"/>
   <g>
    <path class="fil1" d="M1465 881l755 -755c169,-168 444,-168 612,0l755 755c168,168 168,444 0,612l-755 755c-168,168 -443,168 -612,0l-755 -755c-168,-168 -168,-444 0,-612zm101 124l778 -778c100,-100 264,-100 364,0l778 778c100,100 100,264 0,364l-778 778c-100,100 -264,100 -364,0l-778 -778c-100,-100 -100,-264 0,-364z"/>
    <path class="fil2" d="M2225 971c-90,-81 -101,-195 -72,-306l-227 191c-82,69 -76,247 0,322l163 163 549 0 -413 -370z"/>
    <path class="fil2" d="M2856 1366c91,80 101,194 72,305l227 -191c82,-69 76,-246 0,-322l-163 -163 -549 0 413 371z"/>
    <path class="fil2" d="M2067 1408l-160 -141c-37,36 -53,85 0,134l487 446c79,72 234,60 320,-2l110 -79c34,-24 32,-59 29,-88 -75,-7 -152,-31 -215,-89l-201 -181 -370 0z"/>
    <path class="fil2" d="M3014 929l160 140c37,-36 53,-85 0,-133l-487 -447c-79,-72 -234,-60 -320,3l-110 78c-34,25 -32,59 -29,89 75,6 152,31 215,88l201 182 370 0z"/>
   </g>
  </g>
 </g>
</svg>
