<?xml version="1.0" encoding="UTF-8"?>
<!DOCTYPE svg PUBLIC "-//W3C//DTD SVG 1.1//EN" "http://www.w3.org/Graphics/SVG/1.1/DTD/svg11.dtd">
<!-- Creator: CorelDRAW X7 -->
<svg xmlns="http://www.w3.org/2000/svg" xml:space="preserve" width="43.8884mm" height="31.5272mm" version="1.1" style="shape-rendering:geometricPrecision; text-rendering:geometricPrecision; image-rendering:optimizeQuality; fill-rule:evenodd; clip-rule:evenodd"
viewBox="0 0 1156 830"
 xmlns:xlink="http://www.w3.org/1999/xlink">
 <defs>
  <style type="text/css">
   <![CDATA[
    .fil2 {fill:#3F6477}
    .fil1 {fill:#80B3BD}
    .fil3 {fill:#99CFDD}
    .fil0 {fill:#3F6477;fill-rule:nonzero}
    .fil4 {fill:url(#id4)}
   ]]>
  </style>
     <mask id="id0">
  <linearGradient id="id1" gradientUnits="userSpaceOnUse" x1="601.486" y1="410.204" x2="584.743" y2="388.997">
   <stop offset="0" style="stop-opacity:1; stop-color:white"/>
   <stop offset="1" style="stop-opacity:0; stop-color:white"/>
  </linearGradient>
      <rect style="fill:url(#id1)" x="527" y="355" width="183.447" height="92.9162"/>
     </mask>
      <mask id="id2">
  <linearGradient id="id3" gradientUnits="userSpaceOnUse" x1="549.472" y1="131.246" x2="566.215" y2="152.453">
   <stop offset="0" style="stop-opacity:1; stop-color:white"/>
   <stop offset="1" style="stop-opacity:0; stop-color:white"/>
  </linearGradient>
       <rect style="fill:url(#id3)" x="441" y="94" width="183.447" height="92.9188"/>
      </mask>
  <linearGradient id="id4" gradientUnits="userSpaceOnUse" x1="577.776" y1="543.005" x2="577.776" y2="0">
   <stop offset="0" style="stop-opacity:1; stop-color:#3F6477"/>
   <stop offset="1" style="stop-opacity:1; stop-color:#99CFDD"/>
  </linearGradient>
 </defs>
 <g id="Capa_x0020_1">
  <metadata id="CorelCorpID_0Corel-Layer"/>
  <g id="_3070881870208">
   <path class="fil0" d="M107 777c0,-7 -3,-13 -8,-18 -5,-4 -14,-8 -27,-12 -22,-7 -39,-15 -51,-24 -11,-9 -17,-22 -17,-37 0,-16 6,-29 19,-39 13,-10 30,-15 50,-15 21,0 38,6 51,16 13,11 20,25 19,43l0 0 -37 0c0,-9 -3,-17 -9,-22 -6,-5 -14,-8 -25,-8 -9,0 -16,3 -22,7 -5,5 -7,11 -7,18 0,6 2,12 8,16 6,4 15,9 29,13 21,6 37,14 49,24 11,9 16,22 16,38 0,16 -6,29 -19,39 -13,9 -30,14 -51,14 -21,0 -39,-5 -53,-15 -15,-11 -22,-26 -22,-47l0 0 38 0c0,11 3,19 10,25 6,5 15,8 27,8 10,0 18,-2 24,-7 5,-4 8,-10 8,-17zm138 29c-5,8 -10,14 -17,18 -7,4 -15,6 -24,6 -15,0 -26,-5 -35,-15 -8,-10 -13,-26 -13,-48l0 -83 39 0 0 83c0,13 1,22 5,26 3,5 9,7 16,7 6,0 11,-1 16,-3 4,-2 8,-5 10,-9l0 -75 39 0 0 114 -32 0 -4 -21zm87 -122l2 19c5,-7 10,-12 17,-16 7,-3 15,-5 24,-5 9,0 17,2 24,6 6,4 11,10 14,18 5,-8 11,-14 18,-18 7,-4 15,-6 25,-6 14,0 25,5 33,15 8,10 12,25 12,45l0 85 -38 0 0 -85c0,-11 -2,-19 -6,-24 -3,-4 -9,-6 -16,-6 -5,0 -10,1 -14,3 -4,3 -7,6 -9,10 0,2 0,4 0,5 0,1 0,2 0,3l0 94 -38 0 0 -85c0,-11 -2,-19 -6,-23 -3,-5 -9,-7 -16,-7 -5,0 -9,1 -13,3 -4,2 -7,4 -10,8l0 104 -38 0 0 -143 35 0zm269 143c-1,-3 -2,-6 -3,-10 -1,-4 -2,-7 -2,-11 -4,7 -10,13 -16,17 -7,5 -14,7 -23,7 -15,0 -27,-4 -35,-12 -8,-7 -12,-18 -12,-31 0,-14 5,-25 16,-33 11,-7 27,-11 47,-11l22 0 0 -12c0,-6 -2,-12 -5,-16 -4,-3 -9,-5 -17,-5 -6,0 -11,1 -14,4 -3,3 -5,8 -5,13l-37 0 0 -1c-1,-12 4,-22 15,-31 11,-9 26,-13 44,-13 17,0 31,4 42,13 10,8 16,21 16,37l0 59c0,7 0,13 1,19 1,6 3,11 5,17l-39 0zm-35 -25c7,0 13,-2 18,-6 5,-3 9,-7 11,-11l0 -20 -22 0c-8,0 -14,2 -18,6 -4,4 -7,9 -7,15 0,5 2,8 5,11 3,3 8,5 13,5zm93 25l0 -116 -21 0 0 -27 21 0 0 -16c0,-16 5,-28 14,-37 9,-8 22,-13 39,-13 3,0 7,1 10,1 3,1 7,1 11,2l-3 29c-2,-1 -4,-1 -6,-1 -2,0 -5,0 -7,0 -7,0 -11,1 -14,5 -4,3 -5,8 -5,14l0 16 27 0 0 27 -27 0 0 116 -39 0zm65 -73c0,-21 6,-38 18,-52 12,-14 28,-20 49,-20 21,0 38,6 50,20 12,14 18,31 18,52l0 3c0,22 -6,39 -18,53 -12,13 -28,20 -49,20 -22,0 -38,-7 -50,-20 -12,-14 -18,-31 -18,-53l0 -3zm38 3c0,13 3,24 7,32 5,8 12,11 23,11 9,0 17,-4 21,-11 5,-8 7,-19 7,-32l0 -3c0,-12 -2,-23 -7,-31 -4,-8 -12,-12 -22,-12 -10,0 -17,4 -22,13 -4,8 -7,18 -7,30l0 3zm182 -40l-14 0c-5,0 -10,1 -14,4 -4,2 -6,5 -8,10l0 96 -39 0 0 -143 36 0 2 21c3,-7 7,-13 13,-17 5,-4 11,-6 18,-6 2,0 4,0 6,0 1,0 3,1 5,1l-5 34zm43 -33l1 19c5,-7 11,-12 18,-16 7,-3 15,-5 24,-5 9,0 17,2 23,6 7,4 12,10 15,18 4,-8 10,-14 17,-18 7,-4 15,-6 25,-6 14,0 25,5 33,15 8,10 13,25 13,45l0 85 -39 0 0 -85c0,-11 -2,-19 -5,-24 -4,-4 -9,-6 -16,-6 -5,0 -10,1 -14,3 -4,3 -7,6 -10,10 0,2 0,4 0,5 0,1 0,2 0,3l0 94 -38 0 0 -85c0,-11 -2,-19 -5,-23 -4,-5 -9,-7 -16,-7 -5,0 -10,1 -14,3 -4,2 -7,4 -10,8l0 104 -38 0 0 -143 36 0z"/>
   <g>
    <path class="fil1" d="M506 272c-13,-12 -19,-30 -13,-48l-71 65c-11,10 -6,33 5,43l103 94c35,33 75,21 117,-14l61 -52c-32,24 -76,27 -108,-2l-94 -86z"/>
    <path class="fil2" style="mask:url(#id0)" d="M530 426l70 -68c32,29 76,26 108,2l-61 52c-42,35 -82,47 -117,14z"/>
    <g>
     <path class="fil1" d="M645 269c13,12 19,30 13,48l71 -65c10,-10 6,-32 -5,-42l-103 -94c-35,-33 -75,-21 -117,14l-61 51c32,-24 76,-27 108,3l94 85z"/>
     <path class="fil2" style="mask:url(#id2)" d="M621 116l-70 68c-32,-30 -76,-27 -108,-3l61 -51c42,-35 82,-47 117,-14z"/>
     <path class="fil3" d="M517 226l101 91 -148 0 -31 -28c-24,-33 -36,-74 -1,-103l66 -56c-15,35 -19,68 13,96z"/>
    </g>
    <path class="fil4" d="M335 202l173 -173c38,-39 101,-39 140,0l172 173c39,38 39,101 0,139l-172 173c-39,39 -102,39 -140,0l-173 -173c-38,-38 -38,-101 0,-139zm23 28l178 -178c23,-23 61,-23 83,0l178 178c23,23 23,60 0,83l-178 178c-22,23 -60,23 -83,0l-178 -178c-23,-23 -23,-60 0,-83z"/>
    <path class="fil3" d="M634 315l-101 -91 148 0 31 28c24,34 36,74 1,104l-66 55c15,-34 19,-67 -13,-96z"/>
   </g>
  </g>
 </g>
</svg>
