<?xml version="1.0" encoding="UTF-8"?>
<!DOCTYPE svg PUBLIC "-//W3C//DTD SVG 1.1//EN" "http://www.w3.org/Graphics/SVG/1.1/DTD/svg11.dtd">
<!-- Creator: CorelDRAW X7 -->
<svg xmlns="http://www.w3.org/2000/svg" xml:space="preserve" width="43.8885mm" height="28.0579mm" version="1.1" style="shape-rendering:geometricPrecision; text-rendering:geometricPrecision; image-rendering:optimizeQuality; fill-rule:evenodd; clip-rule:evenodd"
viewBox="0 0 2112 1350"
 xmlns:xlink="http://www.w3.org/1999/xlink">
 <defs>
  <style type="text/css">
   <![CDATA[
    .fil1 {fill:#FEFEFE}
    .fil0 {fill:#FEFEFE;fill-rule:nonzero}
   ]]>
  </style>
 </defs>
 <g id="Capa_x0020_1">
  <metadata id="CorelCorpID_0Corel-Layer"/>
  <g id="_3070833397328">
   <path class="fil0" d="M195 1253c0,-13 -5,-24 -14,-33 -10,-8 -26,-15 -50,-23 -40,-12 -71,-26 -92,-43 -21,-17 -32,-39 -32,-68 0,-29 12,-52 36,-70 23,-19 54,-28 90,-28 39,0 71,10 94,30 24,19 36,45 35,77l-1 1 -68 0c0,-17 -5,-31 -16,-40 -11,-10 -25,-14 -45,-14 -17,0 -31,4 -40,12 -9,9 -14,19 -14,32 0,12 5,22 15,30 11,7 28,16 54,24 38,11 68,25 88,43 20,18 30,41 30,70 0,30 -11,53 -35,71 -23,17 -54,26 -93,26 -38,0 -70,-10 -97,-28 -28,-19 -41,-47 -40,-85l1 -1 68 0c0,21 6,36 18,46 12,10 29,15 50,15 19,0 33,-4 43,-12 10,-8 15,-19 15,-32zm252 53c-8,14 -18,25 -30,33 -13,7 -27,11 -43,11 -28,0 -49,-9 -65,-28 -16,-19 -23,-48 -23,-87l0 -151 70 0 0 151c0,23 3,39 9,47 6,9 16,13 29,13 11,0 21,-2 29,-5 8,-4 15,-9 20,-16l0 -139 70 0 0 210 -58 0 -8 -39zm160 -222l3 34c9,-12 19,-22 32,-29 12,-7 27,-10 44,-10 16,0 31,3 43,11 11,7 20,18 27,33 8,-14 18,-25 31,-32 13,-8 28,-12 45,-12 26,0 46,9 61,27 15,18 23,46 23,84l0 155 -71 0 0 -155c0,-21 -3,-36 -9,-44 -7,-8 -17,-13 -29,-13 -10,0 -19,3 -26,7 -8,5 -13,11 -18,19 0,3 0,5 1,7 0,3 0,5 0,7l0 172 -70 0 0 -155c0,-21 -4,-35 -10,-44 -7,-8 -16,-13 -29,-13 -10,0 -18,2 -25,6 -7,4 -13,9 -18,15l0 191 -70 0 0 -261 65 0zm492 261c-2,-6 -5,-12 -6,-19 -2,-7 -4,-13 -5,-20 -7,12 -16,23 -28,31 -12,9 -26,13 -43,13 -27,0 -48,-7 -63,-21 -15,-14 -22,-34 -22,-58 0,-25 10,-45 29,-59 20,-14 49,-21 87,-21l39 0 0 -21c0,-13 -3,-23 -10,-30 -6,-6 -16,-10 -29,-10 -11,0 -20,3 -27,9 -6,5 -9,13 -9,22l-68 0 0 -1c-1,-22 8,-41 29,-57 20,-16 47,-24 80,-24 31,0 56,8 76,23 19,16 29,39 29,68l0 108c0,12 1,24 3,35 1,10 4,21 8,32l-70 0zm-64 -47c12,0 23,-3 33,-9 9,-7 16,-14 19,-22l0 -37 -39 0c-15,0 -27,4 -34,11 -8,8 -12,17 -12,28 0,9 3,16 9,21 6,5 14,8 24,8zm169 47l0 -212 -38 0 0 -49 38 0 0 -29c0,-30 9,-52 26,-68 17,-16 40,-24 71,-24 6,0 12,1 18,1 6,1 13,3 21,4l-6 53c-4,-1 -8,-2 -12,-2 -3,-1 -7,-1 -12,-1 -12,0 -20,3 -26,10 -6,6 -9,15 -9,27l0 29 50 0 0 49 -50 0 0 212 -71 0zm119 -133c0,-39 11,-71 33,-96 21,-25 51,-37 90,-37 39,0 69,12 91,37 22,25 33,57 33,96l0 5c0,39 -11,71 -33,96 -22,25 -52,37 -91,37 -38,0 -68,-12 -90,-37 -22,-25 -33,-57 -33,-96l0 -5zm70 5c0,24 4,43 13,57 8,15 22,22 40,22 19,0 32,-7 40,-22 9,-14 13,-34 13,-57l0 -5c0,-23 -4,-42 -13,-57 -8,-15 -22,-22 -40,-22 -18,0 -32,7 -40,22 -9,15 -13,34 -13,57l0 5zm333 -73l-26 -1c-11,0 -19,3 -26,7 -7,4 -12,10 -15,18l0 177 -71 0 0 -261 66 0 3 38c6,-13 14,-24 24,-32 9,-7 21,-11 33,-11 4,0 7,0 10,1 3,0 6,1 9,2l-7 62zm77 -60l3 34c9,-12 19,-22 32,-29 12,-7 27,-10 43,-10 17,0 32,3 43,11 12,7 21,18 28,33 8,-14 18,-25 31,-32 13,-8 28,-12 45,-12 26,0 46,9 61,27 15,18 23,46 23,84l0 155 -71 0 0 -155c0,-21 -3,-36 -10,-44 -6,-8 -16,-13 -28,-13 -10,0 -19,3 -26,7 -8,5 -13,11 -18,19 0,3 0,5 1,7 0,3 0,5 0,7l0 172 -71 0 0 -155c0,-21 -3,-35 -9,-44 -7,-8 -16,-13 -29,-13 -10,0 -18,2 -25,6 -7,4 -13,9 -18,15l0 191 -70 0 0 -261 65 0z"/>
   <g>
    <path class="fil1" d="M674 317l272 -272c60,-60 159,-60 220,0l272 272c60,61 60,160 0,220l-272 272c-61,61 -160,61 -220,0l-272 -272c-61,-60 -61,-159 0,-220zm36 45l280 -280c36,-36 95,-36 131,0l280 280c36,36 36,95 0,131l-280 280c-36,36 -95,36 -131,0l-280 -280c-36,-36 -36,-95 0,-131z"/>
    <path class="fil1" d="M947 349c-32,-29 -36,-69 -25,-110l-82 69c-30,25 -27,89 0,116l58 59 198 0 -149 -134z"/>
    <path class="fil1" d="M1175 492c32,29 36,70 25,110l82 -69c30,-25 27,-89 0,-116l-58 -59 -198 0 149 134z"/>
    <path class="fil1" d="M891 507l-58 -51c-13,13 -19,31 0,48l175 161c29,26 84,22 116,-1l39 -28c12,-9 12,-21 10,-32 -27,-2 -54,-11 -77,-32l-72 -65 -133 0z"/>
    <path class="fil1" d="M1231 334l58 51c13,-13 19,-31 0,-48l-175 -161c-29,-26 -84,-21 -116,1l-39 28c-12,9 -12,22 -10,32 27,2 54,11 77,32l72 65 133 0z"/>
   </g>
  </g>
 </g>
</svg>
