<?xml version="1.0" encoding="UTF-8"?>
<!DOCTYPE svg PUBLIC "-//W3C//DTD SVG 1.1//EN" "http://www.w3.org/Graphics/SVG/1.1/DTD/svg11.dtd">
<!-- Creator: CorelDRAW X7 -->
<svg xmlns="http://www.w3.org/2000/svg" xml:space="preserve" width="80.0857mm" height="17.7651mm" version="1.1" style="shape-rendering:geometricPrecision; text-rendering:geometricPrecision; image-rendering:optimizeQuality; fill-rule:evenodd; clip-rule:evenodd"
viewBox="0 0 7854 1742"
 xmlns:xlink="http://www.w3.org/1999/xlink">
 <defs>
  <style type="text/css">
   <![CDATA[
    .fil1 {fill:#FEFEFE}
    .fil0 {fill:#FEFEFE;fill-rule:nonzero}
   ]]>
  </style>
 </defs>
 <g id="Capa_x0020_1">
  <metadata id="CorelCorpID_0Corel-Layer"/>
  <path class="fil0" d="M2791 1021c0,-36 -12,-65 -37,-86 -25,-22 -68,-42 -131,-62 -107,-32 -188,-70 -244,-114 -55,-44 -83,-103 -83,-179 0,-76 31,-138 94,-186 62,-49 142,-73 239,-73 103,0 186,26 248,78 63,52 93,120 91,204l-1 4 -181 0c0,-47 -14,-82 -42,-107 -28,-25 -67,-37 -118,-37 -45,0 -81,11 -106,33 -25,22 -38,50 -38,85 0,31 14,57 41,77 27,20 74,42 141,64 102,29 180,67 233,114 54,46 81,107 81,184 0,79 -31,142 -93,188 -62,46 -144,68 -247,69 -99,-1 -185,-25 -257,-75 -71,-50 -106,-124 -104,-223l1 -3 181 0c0,54 16,95 48,121 32,25 76,39 131,39 50,0 88,-11 114,-32 26,-20 39,-48 39,-83zm668 140c-22,37 -49,66 -81,86 -33,20 -71,29 -115,30 -72,-1 -129,-25 -170,-74 -41,-50 -62,-126 -62,-230l0 -400 186 0 0 401c0,61 8,102 24,124 17,23 42,34 77,34 29,0 55,-5 76,-15 21,-9 39,-23 53,-42l0 -365 186 0 0 553 -155 0 -19 -102zm422 -588l7 91c23,-33 50,-58 84,-77 33,-18 72,-27 115,-27 45,0 82,10 114,30 31,19 55,49 71,88 22,-37 49,-65 83,-86 34,-21 74,-32 120,-32 68,0 122,24 161,73 40,48 59,122 59,221l0 409 -186 0 0 -410c0,-55 -8,-94 -25,-115 -17,-22 -43,-33 -76,-33 -27,0 -50,6 -69,18 -19,11 -35,28 -46,48 0,8 0,15 1,21 0,6 0,12 0,18l0 453 -186 0 0 -410c0,-54 -8,-92 -25,-114 -17,-23 -43,-34 -77,-34 -25,0 -47,5 -66,14 -18,10 -34,23 -46,41l0 503 -186 0 0 -690 173 0zm1299 690c-7,-16 -13,-32 -18,-50 -5,-17 -8,-35 -10,-53 -20,33 -45,61 -76,83 -32,23 -69,33 -112,34 -73,-1 -128,-19 -167,-56 -40,-38 -59,-88 -59,-152 0,-68 26,-120 78,-158 52,-37 128,-55 228,-55l105 0 0 -55c0,-33 -9,-59 -27,-77 -17,-19 -43,-28 -77,-28 -31,0 -54,7 -70,22 -17,15 -25,35 -25,60l-179 0 -1 -3c-3,-59 22,-109 76,-151 54,-42 124,-64 211,-64 83,0 150,21 201,63 51,42 77,101 77,179l0 285c0,32 2,63 7,91 5,29 13,57 23,85l-185 0zm-171 -124c33,0 62,-8 87,-25 26,-16 43,-34 53,-55l0 -98 -105 0c-40,0 -70,10 -90,29 -20,20 -30,44 -30,72 0,24 8,42 23,56 15,14 36,21 62,21zm449 124l0 -559 -103 0 0 -131 103 0 0 -77c0,-77 22,-136 67,-178 45,-42 107,-63 188,-63 16,0 32,1 48,3 16,3 35,6 54,10l-16 139c-10,-2 -20,-3 -30,-5 -9,-1 -20,-2 -33,-2 -30,0 -53,9 -69,25 -15,17 -23,41 -23,71l0 77 133 0 0 131 -133 0 0 559 -186 0zm313 -351c0,-103 29,-187 86,-253 57,-66 137,-99 239,-99 102,0 181,33 239,99 58,65 87,149 87,253l0 13c0,104 -29,188 -86,254 -58,65 -138,97 -239,98 -102,-1 -182,-33 -240,-98 -57,-66 -86,-150 -86,-254l0 -13zm186 13c0,63 11,113 33,152 22,38 58,57 107,57 48,0 83,-20 105,-58 23,-38 34,-88 34,-151l0 -13c0,-62 -11,-111 -34,-150 -22,-39 -58,-58 -106,-58 -48,0 -84,19 -106,58 -22,39 -33,89 -33,150l0 13zm878 -192l-68 -2c-28,0 -51,6 -69,18 -18,11 -31,27 -40,48l0 466 -186 0 0 -690 173 0 8 102c16,-36 37,-64 63,-84 26,-21 55,-31 89,-31 9,0 18,1 26,3 7,1 16,3 24,5l-20 165zm204 -160l8 91c22,-33 50,-58 83,-77 34,-18 72,-27 116,-27 44,0 82,10 114,30 31,19 55,49 71,88 21,-37 49,-65 83,-86 34,-21 74,-32 120,-32 68,0 122,24 161,73 39,48 59,122 59,221l0 409 -186 0 0 -410c0,-55 -9,-94 -26,-115 -17,-22 -42,-33 -76,-33 -26,0 -49,6 -68,18 -20,11 -35,28 -47,48 0,8 1,15 1,21 1,6 1,12 1,18l0 453 -186 0 0 -410c0,-54 -8,-92 -25,-114 -17,-23 -43,-34 -77,-34 -25,0 -47,5 -66,14 -19,10 -35,23 -47,41l0 503 -185 0 0 -690 172 0z"/>
  <g id="_3070881846368">
   <path class="fil1" d="M93 647l554 -554c123,-124 325,-124 448,0l555 554c123,123 123,325 0,448l-555 555c-123,123 -325,123 -448,0l-554 -555c-124,-123 -124,-325 0,-448zm74 90l570 -570c74,-74 194,-74 268,0l570 570c74,74 74,194 0,268l-570 570c-74,74 -194,74 -268,0l-570 -570c-74,-74 -74,-194 0,-268z"/>
   <path class="fil1" d="M650 712c-66,-59 -74,-142 -53,-224l-166 140c-60,51 -56,181 0,237l119 119 403 0 -303 -272z"/>
   <path class="fil1" d="M1113 1002c67,59 75,143 53,224l166 -140c61,-51 56,-181 0,-236l-119 -120 -403 0 303 272z"/>
   <path class="fil1" d="M534 1033l-117 -103c-27,26 -39,62 0,98l357 327c58,53 172,44 235,-1l81 -58c25,-18 23,-43 21,-65 -55,-5 -111,-23 -158,-65l-147 -133 -272 0z"/>
   <path class="fil1" d="M1229 681l117 104c28,-27 39,-63 0,-98l-357 -328c-58,-53 -171,-44 -235,2l-80 58c-25,17 -24,43 -21,64 54,5 111,23 157,65l147 133 272 0z"/>
  </g>
 </g>
</svg>
