<?xml version="1.0" encoding="UTF-8"?>
<!DOCTYPE svg PUBLIC "-//W3C//DTD SVG 1.1//EN" "http://www.w3.org/Graphics/SVG/1.1/DTD/svg11.dtd">
<!-- Creator: CorelDRAW X7 -->
<svg xmlns="http://www.w3.org/2000/svg" xml:space="preserve" width="88.7848mm" height="20.6236mm" version="1.1" style="shape-rendering:geometricPrecision; text-rendering:geometricPrecision; image-rendering:optimizeQuality; fill-rule:evenodd; clip-rule:evenodd"
viewBox="0 0 8240 1914"
 xmlns:xlink="http://www.w3.org/1999/xlink">
 <defs>
  <style type="text/css">
   <![CDATA[
    .fil2 {fill:#3F6477}
    .fil1 {fill:#80B3BD}
    .fil3 {fill:#99CFDD}
    .fil0 {fill:#3F6477;fill-rule:nonzero}
    .fil4 {fill:url(#id4)}
   ]]>
  </style>
    <mask id="id0">
  <linearGradient id="id1" gradientUnits="userSpaceOnUse" x1="1040.57" y1="1445.89" x2="981.551" y2="1371.14">
   <stop offset="0" style="stop-opacity:1; stop-color:white"/>
   <stop offset="1" style="stop-opacity:0; stop-color:white"/>
  </linearGradient>
     <rect style="fill:url(#id1)" x="778" y="1251" width="647" height="328"/>
    </mask>
     <mask id="id2">
  <linearGradient id="id3" gradientUnits="userSpaceOnUse" x1="857.226" y1="462.616" x2="916.24" y2="537.367">
   <stop offset="0" style="stop-opacity:1; stop-color:white"/>
   <stop offset="1" style="stop-opacity:0; stop-color:white"/>
  </linearGradient>
      <rect style="fill:url(#id3)" x="474" y="330" width="647" height="328"/>
     </mask>
  <linearGradient id="id4" gradientUnits="userSpaceOnUse" x1="956.994" y1="1913.99" x2="956.994" y2="0">
   <stop offset="0" style="stop-opacity:1; stop-color:#3F6477"/>
   <stop offset="1" style="stop-opacity:1; stop-color:#99CFDD"/>
  </linearGradient>
 </defs>
 <g id="Capa_x0020_1">
  <metadata id="CorelCorpID_0Corel-Layer"/>
  <path class="fil0" d="M2958 1184c0,-38 -13,-68 -39,-90 -26,-23 -71,-44 -137,-64 -111,-34 -196,-73 -254,-119 -58,-46 -87,-108 -87,-187 0,-79 33,-144 98,-195 65,-50 148,-75 249,-75 108,0 194,27 259,81 66,54 98,125 95,213l-1 4 -188 0c0,-49 -15,-86 -44,-112 -30,-26 -70,-39 -123,-39 -48,0 -85,12 -111,35 -27,23 -40,53 -40,88 0,33 15,60 43,81 28,21 77,44 147,67 106,30 188,70 244,118 55,49 83,113 83,192 0,83 -32,149 -97,197 -65,47 -150,71 -257,72 -104,-1 -193,-27 -268,-78 -75,-52 -111,-130 -109,-233l1 -4 189 0c0,58 17,100 50,127 34,27 80,40 137,40 52,0 92,-11 119,-32 27,-22 41,-51 41,-87zm696 146c-22,39 -50,68 -85,89 -34,21 -73,31 -119,32 -75,-1 -135,-26 -178,-78 -42,-51 -64,-131 -64,-239l0 -417 194 0 0 418c0,63 8,106 25,130 18,23 44,34 80,34 31,0 58,-5 80,-14 22,-10 40,-25 54,-45l0 -379 195 0 0 575 -161 0 -21 -106zm441 -613l8 95c23,-35 52,-62 86,-80 35,-19 75,-29 121,-29 46,0 86,10 119,31 32,20 57,51 74,92 22,-38 51,-68 87,-90 35,-22 77,-33 125,-33 71,0 127,25 168,76 41,50 61,127 61,230l0 427 -194 0 0 -427c0,-58 -9,-98 -27,-121 -17,-22 -44,-34 -79,-34 -27,0 -51,6 -71,19 -21,12 -37,29 -49,50 0,9 1,16 1,22 1,6 1,12 1,18l0 473 -194 0 0 -427c0,-57 -9,-96 -26,-120 -18,-23 -45,-35 -80,-35 -27,0 -49,5 -69,15 -20,10 -36,24 -49,42l0 525 -194 0 0 -719 181 0zm1355 719c-7,-16 -13,-33 -18,-52 -6,-18 -9,-36 -12,-55 -20,35 -46,64 -79,87 -33,23 -72,34 -117,35 -75,-1 -133,-20 -174,-59 -41,-39 -61,-92 -61,-159 0,-70 27,-125 81,-164 55,-38 134,-58 238,-58l109 0 0 -57c0,-34 -9,-61 -27,-81 -18,-18 -45,-28 -81,-28 -32,0 -56,8 -73,23 -17,15 -26,36 -26,63l-187 0 -1 -4c-3,-61 23,-113 80,-158 56,-44 129,-66 219,-66 87,0 157,22 210,66 54,43 80,105 80,186l0 298c0,34 3,65 8,95 5,30 13,59 24,88l-193 0zm-178 -129c34,0 64,-9 91,-26 26,-16 45,-36 54,-58l0 -102 -109 0c-41,0 -72,10 -93,31 -21,20 -32,45 -32,75 0,24 8,44 24,58 15,15 37,22 65,22zm468 129l0 -583 -107 0 0 -136 107 0 0 -80c0,-81 23,-143 70,-187 47,-44 112,-65 196,-65 17,0 33,1 50,3 17,3 36,6 56,11l-16 144c-11,-2 -21,-3 -31,-5 -10,-1 -22,-2 -35,-2 -32,0 -55,9 -71,26 -17,18 -25,42 -25,75l0 80 139 0 0 136 -139 0 0 583 -194 0zm327 -366c0,-108 30,-195 90,-264 59,-69 142,-103 249,-103 106,0 189,34 250,103 60,68 90,156 90,264l0 14c0,108 -30,196 -90,264 -60,68 -143,102 -249,103 -107,-1 -190,-35 -250,-103 -60,-68 -90,-156 -90,-264l0 -14zm193 14c0,65 12,118 35,158 23,40 60,59 112,59 50,0 87,-20 110,-59 23,-40 35,-93 35,-158l0 -14c0,-64 -12,-116 -35,-157 -24,-40 -61,-60 -111,-60 -51,0 -87,20 -111,61 -23,40 -35,92 -35,156l0 14zm917 -201l-71 -1c-29,0 -53,6 -72,18 -18,11 -33,28 -42,50l0 486 -194 0 0 -719 180 0 9 106c17,-38 39,-67 66,-88 26,-21 57,-32 92,-32 10,0 19,1 27,3 8,1 17,3 25,5l-20 172zm213 -166l8 95c23,-35 52,-62 87,-80 35,-19 75,-29 121,-29 46,0 85,10 118,31 33,20 58,51 75,92 22,-38 51,-68 86,-90 36,-22 77,-33 125,-33 71,0 127,25 168,76 41,50 62,127 62,230l0 427 -194 0 0 -427c0,-58 -9,-98 -27,-121 -18,-22 -44,-34 -79,-34 -28,0 -52,6 -72,19 -20,12 -36,29 -48,50 0,9 0,16 1,22 0,6 0,12 0,18l0 473 -193 0 0 -427c0,-57 -9,-96 -27,-120 -18,-23 -44,-35 -80,-35 -26,0 -49,5 -69,15 -19,10 -36,24 -48,42l0 525 -194 0 0 -719 180 0z"/>
  <g id="_3070834425824">
   <path class="fil1" d="M702 959c-45,-41 -65,-105 -42,-169l-251 229c-38,36 -23,114 16,150l362 332c126,116 267,74 413,-49l215 -182c-112,84 -266,95 -381,-10l-332 -301z"/>
   <path class="fil2" style="mask:url(#id0)" d="M787 1501l247 -241c115,105 269,94 381,10l-215 182c-146,123 -287,165 -413,49z"/>
   <g>
    <path class="fil1" d="M1195 950c46,41 66,105 43,169l250 -230c39,-35 24,-114 -15,-149l-362 -333c-126,-115 -267,-73 -413,50l-215 182c112,-84 265,-96 381,9l331 302z"/>
    <path class="fil2" style="mask:url(#id2)" d="M1111 407l-247 241c-116,-105 -269,-93 -381,-9l215 -182c146,-123 287,-165 413,-50z"/>
    <path class="fil3" d="M741 798l356 321 -522 0 -109 -100c-84,-117 -124,-261 -2,-364l232 -197c-51,122 -67,239 45,340z"/>
   </g>
   <path class="fil4" d="M102 711l609 -609c135,-136 357,-136 492,0l609 609c136,135 136,357 0,492l-609 609c-135,136 -357,136 -492,0l-609 -609c-136,-135 -136,-357 0,-492zm81 99l627 -627c81,-80 213,-80 294,0l627 627c80,81 80,213 0,294l-627 627c-81,80 -213,80 -294,0l-627 -627c-80,-81 -80,-213 0,-294z"/>
   <path class="fil3" d="M1157 1111l-356 -321 521 0 109 100c84,117 125,261 3,364l-233 196c52,-122 67,-238 -44,-339z"/>
  </g>
 </g>
</svg>
